<?xml version="1.0" encoding="utf-8" standalone="no"?>
<!DOCTYPE svg PUBLIC "-//W3C//DTD SVG 1.1//EN"
  "http://www.w3.org/Graphics/SVG/1.1/DTD/svg11.dtd">
<svg xmlns:xlink="http://www.w3.org/1999/xlink" width="550.419091pt" height="392.514375pt" viewBox="0 0 550.419091 392.514375" xmlns="http://www.w3.org/2000/svg" version="1.1">
 <metadata>
  <rdf:RDF xmlns:dc="http://purl.org/dc/elements/1.1/" xmlns:cc="http://creativecommons.org/ns#" xmlns:rdf="http://www.w3.org/1999/02/22-rdf-syntax-ns#">
   <cc:Work>
    <dc:type rdf:resource="http://purl.org/dc/dcmitype/StillImage"/>
    <dc:date>2026-03-23T21:53:36.148396</dc:date>
    <dc:format>image/svg+xml</dc:format>
    <dc:creator>
     <cc:Agent>
      <dc:title>Matplotlib v3.10.3, https://matplotlib.org/</dc:title>
     </cc:Agent>
    </dc:creator>
   </cc:Work>
  </rdf:RDF>
 </metadata>
 <defs>
  <style type="text/css">*{stroke-linejoin: round; stroke-linecap: butt}</style>
 </defs>
 <g id="figure_1">
  <g id="patch_1">
   <path d="M 0 392.514375 
L 550.419091 392.514375 
L 550.419091 0 
L 0 0 
z
" style="fill: #ffffff"/>
  </g>
  <g id="axes_1">
   <g id="patch_2">
    <path d="M 43.78125 354.958125 
L 490.18125 354.958125 
L 490.18125 22.318125 
L 43.78125 22.318125 
z
" style="fill: #ffffff"/>
   </g>
   <g id="matplotlib.axis_1">
    <g id="xtick_1">
     <g id="line2d_1">
      <defs>
       <path id="md8aa01b852" d="M 0 0 
L 0 3.5 
" style="stroke: #000000; stroke-width: 0.8"/>
      </defs>
      <g>
       <use xlink:href="#md8aa01b852" x="89.061089" y="354.958125" style="stroke: #000000; stroke-width: 0.8"/>
      </g>
     </g>
     <g id="text_1">
      <!-- 5 -->
      <g transform="translate(85.879839 369.556562) scale(0.1 -0.1)">
       <defs>
        <path id="DejaVuSans-35" d="M 691 4666 
L 3169 4666 
L 3169 4134 
L 1269 4134 
L 1269 2991 
Q 1406 3038 1543 3061 
Q 1681 3084 1819 3084 
Q 2600 3084 3056 2656 
Q 3513 2228 3513 1497 
Q 3513 744 3044 326 
Q 2575 -91 1722 -91 
Q 1428 -91 1123 -41 
Q 819 9 494 109 
L 494 744 
Q 775 591 1075 516 
Q 1375 441 1709 441 
Q 2250 441 2565 725 
Q 2881 1009 2881 1497 
Q 2881 1984 2565 2268 
Q 2250 2553 1709 2553 
Q 1456 2553 1204 2497 
Q 953 2441 691 2322 
L 691 4666 
z
" transform="scale(0.015625)"/>
       </defs>
       <use xlink:href="#DejaVuSans-35"/>
      </g>
     </g>
    </g>
    <g id="xtick_2">
     <g id="line2d_2">
      <g>
       <use xlink:href="#md8aa01b852" x="151.188606" y="354.958125" style="stroke: #000000; stroke-width: 0.8"/>
      </g>
     </g>
     <g id="text_2">
      <!-- 10 -->
      <g transform="translate(144.826106 369.556562) scale(0.1 -0.1)">
       <defs>
        <path id="DejaVuSans-31" d="M 794 531 
L 1825 531 
L 1825 4091 
L 703 3866 
L 703 4441 
L 1819 4666 
L 2450 4666 
L 2450 531 
L 3481 531 
L 3481 0 
L 794 0 
L 794 531 
z
" transform="scale(0.015625)"/>
        <path id="DejaVuSans-30" d="M 2034 4250 
Q 1547 4250 1301 3770 
Q 1056 3291 1056 2328 
Q 1056 1369 1301 889 
Q 1547 409 2034 409 
Q 2525 409 2770 889 
Q 3016 1369 3016 2328 
Q 3016 3291 2770 3770 
Q 2525 4250 2034 4250 
z
M 2034 4750 
Q 2819 4750 3233 4129 
Q 3647 3509 3647 2328 
Q 3647 1150 3233 529 
Q 2819 -91 2034 -91 
Q 1250 -91 836 529 
Q 422 1150 422 2328 
Q 422 3509 836 4129 
Q 1250 4750 2034 4750 
z
" transform="scale(0.015625)"/>
       </defs>
       <use xlink:href="#DejaVuSans-31"/>
       <use xlink:href="#DejaVuSans-30" transform="translate(63.623047 0)"/>
      </g>
     </g>
    </g>
    <g id="xtick_3">
     <g id="line2d_3">
      <g>
       <use xlink:href="#md8aa01b852" x="213.316122" y="354.958125" style="stroke: #000000; stroke-width: 0.8"/>
      </g>
     </g>
     <g id="text_3">
      <!-- 15 -->
      <g transform="translate(206.953622 369.556562) scale(0.1 -0.1)">
       <use xlink:href="#DejaVuSans-31"/>
       <use xlink:href="#DejaVuSans-35" transform="translate(63.623047 0)"/>
      </g>
     </g>
    </g>
    <g id="xtick_4">
     <g id="line2d_4">
      <g>
       <use xlink:href="#md8aa01b852" x="275.443639" y="354.958125" style="stroke: #000000; stroke-width: 0.8"/>
      </g>
     </g>
     <g id="text_4">
      <!-- 20 -->
      <g transform="translate(269.081139 369.556562) scale(0.1 -0.1)">
       <defs>
        <path id="DejaVuSans-32" d="M 1228 531 
L 3431 531 
L 3431 0 
L 469 0 
L 469 531 
Q 828 903 1448 1529 
Q 2069 2156 2228 2338 
Q 2531 2678 2651 2914 
Q 2772 3150 2772 3378 
Q 2772 3750 2511 3984 
Q 2250 4219 1831 4219 
Q 1534 4219 1204 4116 
Q 875 4013 500 3803 
L 500 4441 
Q 881 4594 1212 4672 
Q 1544 4750 1819 4750 
Q 2544 4750 2975 4387 
Q 3406 4025 3406 3419 
Q 3406 3131 3298 2873 
Q 3191 2616 2906 2266 
Q 2828 2175 2409 1742 
Q 1991 1309 1228 531 
z
" transform="scale(0.015625)"/>
       </defs>
       <use xlink:href="#DejaVuSans-32"/>
       <use xlink:href="#DejaVuSans-30" transform="translate(63.623047 0)"/>
      </g>
     </g>
    </g>
    <g id="xtick_5">
     <g id="line2d_5">
      <g>
       <use xlink:href="#md8aa01b852" x="337.571156" y="354.958125" style="stroke: #000000; stroke-width: 0.8"/>
      </g>
     </g>
     <g id="text_5">
      <!-- 25 -->
      <g transform="translate(331.208656 369.556562) scale(0.1 -0.1)">
       <use xlink:href="#DejaVuSans-32"/>
       <use xlink:href="#DejaVuSans-35" transform="translate(63.623047 0)"/>
      </g>
     </g>
    </g>
    <g id="xtick_6">
     <g id="line2d_6">
      <g>
       <use xlink:href="#md8aa01b852" x="399.698673" y="354.958125" style="stroke: #000000; stroke-width: 0.8"/>
      </g>
     </g>
     <g id="text_6">
      <!-- 30 -->
      <g transform="translate(393.336173 369.556562) scale(0.1 -0.1)">
       <defs>
        <path id="DejaVuSans-33" d="M 2597 2516 
Q 3050 2419 3304 2112 
Q 3559 1806 3559 1356 
Q 3559 666 3084 287 
Q 2609 -91 1734 -91 
Q 1441 -91 1130 -33 
Q 819 25 488 141 
L 488 750 
Q 750 597 1062 519 
Q 1375 441 1716 441 
Q 2309 441 2620 675 
Q 2931 909 2931 1356 
Q 2931 1769 2642 2001 
Q 2353 2234 1838 2234 
L 1294 2234 
L 1294 2753 
L 1863 2753 
Q 2328 2753 2575 2939 
Q 2822 3125 2822 3475 
Q 2822 3834 2567 4026 
Q 2313 4219 1838 4219 
Q 1578 4219 1281 4162 
Q 984 4106 628 3988 
L 628 4550 
Q 988 4650 1302 4700 
Q 1616 4750 1894 4750 
Q 2613 4750 3031 4423 
Q 3450 4097 3450 3541 
Q 3450 3153 3228 2886 
Q 3006 2619 2597 2516 
z
" transform="scale(0.015625)"/>
       </defs>
       <use xlink:href="#DejaVuSans-33"/>
       <use xlink:href="#DejaVuSans-30" transform="translate(63.623047 0)"/>
      </g>
     </g>
    </g>
    <g id="xtick_7">
     <g id="line2d_7">
      <g>
       <use xlink:href="#md8aa01b852" x="461.826189" y="354.958125" style="stroke: #000000; stroke-width: 0.8"/>
      </g>
     </g>
     <g id="text_7">
      <!-- 35 -->
      <g transform="translate(455.463689 369.556562) scale(0.1 -0.1)">
       <use xlink:href="#DejaVuSans-33"/>
       <use xlink:href="#DejaVuSans-35" transform="translate(63.623047 0)"/>
      </g>
     </g>
    </g>
    <g id="text_8">
     <!-- Cost per query (millicents) -->
     <g transform="translate(200.470312 383.234687) scale(0.1 -0.1)">
      <defs>
       <path id="DejaVuSans-43" d="M 4122 4306 
L 4122 3641 
Q 3803 3938 3442 4084 
Q 3081 4231 2675 4231 
Q 1875 4231 1450 3742 
Q 1025 3253 1025 2328 
Q 1025 1406 1450 917 
Q 1875 428 2675 428 
Q 3081 428 3442 575 
Q 3803 722 4122 1019 
L 4122 359 
Q 3791 134 3420 21 
Q 3050 -91 2638 -91 
Q 1578 -91 968 557 
Q 359 1206 359 2328 
Q 359 3453 968 4101 
Q 1578 4750 2638 4750 
Q 3056 4750 3426 4639 
Q 3797 4528 4122 4306 
z
" transform="scale(0.015625)"/>
       <path id="DejaVuSans-6f" d="M 1959 3097 
Q 1497 3097 1228 2736 
Q 959 2375 959 1747 
Q 959 1119 1226 758 
Q 1494 397 1959 397 
Q 2419 397 2687 759 
Q 2956 1122 2956 1747 
Q 2956 2369 2687 2733 
Q 2419 3097 1959 3097 
z
M 1959 3584 
Q 2709 3584 3137 3096 
Q 3566 2609 3566 1747 
Q 3566 888 3137 398 
Q 2709 -91 1959 -91 
Q 1206 -91 779 398 
Q 353 888 353 1747 
Q 353 2609 779 3096 
Q 1206 3584 1959 3584 
z
" transform="scale(0.015625)"/>
       <path id="DejaVuSans-73" d="M 2834 3397 
L 2834 2853 
Q 2591 2978 2328 3040 
Q 2066 3103 1784 3103 
Q 1356 3103 1142 2972 
Q 928 2841 928 2578 
Q 928 2378 1081 2264 
Q 1234 2150 1697 2047 
L 1894 2003 
Q 2506 1872 2764 1633 
Q 3022 1394 3022 966 
Q 3022 478 2636 193 
Q 2250 -91 1575 -91 
Q 1294 -91 989 -36 
Q 684 19 347 128 
L 347 722 
Q 666 556 975 473 
Q 1284 391 1588 391 
Q 1994 391 2212 530 
Q 2431 669 2431 922 
Q 2431 1156 2273 1281 
Q 2116 1406 1581 1522 
L 1381 1569 
Q 847 1681 609 1914 
Q 372 2147 372 2553 
Q 372 3047 722 3315 
Q 1072 3584 1716 3584 
Q 2034 3584 2315 3537 
Q 2597 3491 2834 3397 
z
" transform="scale(0.015625)"/>
       <path id="DejaVuSans-74" d="M 1172 4494 
L 1172 3500 
L 2356 3500 
L 2356 3053 
L 1172 3053 
L 1172 1153 
Q 1172 725 1289 603 
Q 1406 481 1766 481 
L 2356 481 
L 2356 0 
L 1766 0 
Q 1100 0 847 248 
Q 594 497 594 1153 
L 594 3053 
L 172 3053 
L 172 3500 
L 594 3500 
L 594 4494 
L 1172 4494 
z
" transform="scale(0.015625)"/>
       <path id="DejaVuSans-20" transform="scale(0.015625)"/>
       <path id="DejaVuSans-70" d="M 1159 525 
L 1159 -1331 
L 581 -1331 
L 581 3500 
L 1159 3500 
L 1159 2969 
Q 1341 3281 1617 3432 
Q 1894 3584 2278 3584 
Q 2916 3584 3314 3078 
Q 3713 2572 3713 1747 
Q 3713 922 3314 415 
Q 2916 -91 2278 -91 
Q 1894 -91 1617 61 
Q 1341 213 1159 525 
z
M 3116 1747 
Q 3116 2381 2855 2742 
Q 2594 3103 2138 3103 
Q 1681 3103 1420 2742 
Q 1159 2381 1159 1747 
Q 1159 1113 1420 752 
Q 1681 391 2138 391 
Q 2594 391 2855 752 
Q 3116 1113 3116 1747 
z
" transform="scale(0.015625)"/>
       <path id="DejaVuSans-65" d="M 3597 1894 
L 3597 1613 
L 953 1613 
Q 991 1019 1311 708 
Q 1631 397 2203 397 
Q 2534 397 2845 478 
Q 3156 559 3463 722 
L 3463 178 
Q 3153 47 2828 -22 
Q 2503 -91 2169 -91 
Q 1331 -91 842 396 
Q 353 884 353 1716 
Q 353 2575 817 3079 
Q 1281 3584 2069 3584 
Q 2775 3584 3186 3129 
Q 3597 2675 3597 1894 
z
M 3022 2063 
Q 3016 2534 2758 2815 
Q 2500 3097 2075 3097 
Q 1594 3097 1305 2825 
Q 1016 2553 972 2059 
L 3022 2063 
z
" transform="scale(0.015625)"/>
       <path id="DejaVuSans-72" d="M 2631 2963 
Q 2534 3019 2420 3045 
Q 2306 3072 2169 3072 
Q 1681 3072 1420 2755 
Q 1159 2438 1159 1844 
L 1159 0 
L 581 0 
L 581 3500 
L 1159 3500 
L 1159 2956 
Q 1341 3275 1631 3429 
Q 1922 3584 2338 3584 
Q 2397 3584 2469 3576 
Q 2541 3569 2628 3553 
L 2631 2963 
z
" transform="scale(0.015625)"/>
       <path id="DejaVuSans-71" d="M 947 1747 
Q 947 1113 1208 752 
Q 1469 391 1925 391 
Q 2381 391 2643 752 
Q 2906 1113 2906 1747 
Q 2906 2381 2643 2742 
Q 2381 3103 1925 3103 
Q 1469 3103 1208 2742 
Q 947 2381 947 1747 
z
M 2906 525 
Q 2725 213 2448 61 
Q 2172 -91 1784 -91 
Q 1150 -91 751 415 
Q 353 922 353 1747 
Q 353 2572 751 3078 
Q 1150 3584 1784 3584 
Q 2172 3584 2448 3432 
Q 2725 3281 2906 2969 
L 2906 3500 
L 3481 3500 
L 3481 -1331 
L 2906 -1331 
L 2906 525 
z
" transform="scale(0.015625)"/>
       <path id="DejaVuSans-75" d="M 544 1381 
L 544 3500 
L 1119 3500 
L 1119 1403 
Q 1119 906 1312 657 
Q 1506 409 1894 409 
Q 2359 409 2629 706 
Q 2900 1003 2900 1516 
L 2900 3500 
L 3475 3500 
L 3475 0 
L 2900 0 
L 2900 538 
Q 2691 219 2414 64 
Q 2138 -91 1772 -91 
Q 1169 -91 856 284 
Q 544 659 544 1381 
z
M 1991 3584 
L 1991 3584 
z
" transform="scale(0.015625)"/>
       <path id="DejaVuSans-79" d="M 2059 -325 
Q 1816 -950 1584 -1140 
Q 1353 -1331 966 -1331 
L 506 -1331 
L 506 -850 
L 844 -850 
Q 1081 -850 1212 -737 
Q 1344 -625 1503 -206 
L 1606 56 
L 191 3500 
L 800 3500 
L 1894 763 
L 2988 3500 
L 3597 3500 
L 2059 -325 
z
" transform="scale(0.015625)"/>
       <path id="DejaVuSans-28" d="M 1984 4856 
Q 1566 4138 1362 3434 
Q 1159 2731 1159 2009 
Q 1159 1288 1364 580 
Q 1569 -128 1984 -844 
L 1484 -844 
Q 1016 -109 783 600 
Q 550 1309 550 2009 
Q 550 2706 781 3412 
Q 1013 4119 1484 4856 
L 1984 4856 
z
" transform="scale(0.015625)"/>
       <path id="DejaVuSans-6d" d="M 3328 2828 
Q 3544 3216 3844 3400 
Q 4144 3584 4550 3584 
Q 5097 3584 5394 3201 
Q 5691 2819 5691 2113 
L 5691 0 
L 5113 0 
L 5113 2094 
Q 5113 2597 4934 2840 
Q 4756 3084 4391 3084 
Q 3944 3084 3684 2787 
Q 3425 2491 3425 1978 
L 3425 0 
L 2847 0 
L 2847 2094 
Q 2847 2600 2669 2842 
Q 2491 3084 2119 3084 
Q 1678 3084 1418 2786 
Q 1159 2488 1159 1978 
L 1159 0 
L 581 0 
L 581 3500 
L 1159 3500 
L 1159 2956 
Q 1356 3278 1631 3431 
Q 1906 3584 2284 3584 
Q 2666 3584 2933 3390 
Q 3200 3197 3328 2828 
z
" transform="scale(0.015625)"/>
       <path id="DejaVuSans-69" d="M 603 3500 
L 1178 3500 
L 1178 0 
L 603 0 
L 603 3500 
z
M 603 4863 
L 1178 4863 
L 1178 4134 
L 603 4134 
L 603 4863 
z
" transform="scale(0.015625)"/>
       <path id="DejaVuSans-6c" d="M 603 4863 
L 1178 4863 
L 1178 0 
L 603 0 
L 603 4863 
z
" transform="scale(0.015625)"/>
       <path id="DejaVuSans-63" d="M 3122 3366 
L 3122 2828 
Q 2878 2963 2633 3030 
Q 2388 3097 2138 3097 
Q 1578 3097 1268 2742 
Q 959 2388 959 1747 
Q 959 1106 1268 751 
Q 1578 397 2138 397 
Q 2388 397 2633 464 
Q 2878 531 3122 666 
L 3122 134 
Q 2881 22 2623 -34 
Q 2366 -91 2075 -91 
Q 1284 -91 818 406 
Q 353 903 353 1747 
Q 353 2603 823 3093 
Q 1294 3584 2113 3584 
Q 2378 3584 2631 3529 
Q 2884 3475 3122 3366 
z
" transform="scale(0.015625)"/>
       <path id="DejaVuSans-6e" d="M 3513 2113 
L 3513 0 
L 2938 0 
L 2938 2094 
Q 2938 2591 2744 2837 
Q 2550 3084 2163 3084 
Q 1697 3084 1428 2787 
Q 1159 2491 1159 1978 
L 1159 0 
L 581 0 
L 581 3500 
L 1159 3500 
L 1159 2956 
Q 1366 3272 1645 3428 
Q 1925 3584 2291 3584 
Q 2894 3584 3203 3211 
Q 3513 2838 3513 2113 
z
" transform="scale(0.015625)"/>
       <path id="DejaVuSans-29" d="M 513 4856 
L 1013 4856 
Q 1481 4119 1714 3412 
Q 1947 2706 1947 2009 
Q 1947 1309 1714 600 
Q 1481 -109 1013 -844 
L 513 -844 
Q 928 -128 1133 580 
Q 1338 1288 1338 2009 
Q 1338 2731 1133 3434 
Q 928 4138 513 4856 
z
" transform="scale(0.015625)"/>
      </defs>
      <use xlink:href="#DejaVuSans-43"/>
      <use xlink:href="#DejaVuSans-6f" transform="translate(69.824219 0)"/>
      <use xlink:href="#DejaVuSans-73" transform="translate(131.005859 0)"/>
      <use xlink:href="#DejaVuSans-74" transform="translate(183.105469 0)"/>
      <use xlink:href="#DejaVuSans-20" transform="translate(222.314453 0)"/>
      <use xlink:href="#DejaVuSans-70" transform="translate(254.101562 0)"/>
      <use xlink:href="#DejaVuSans-65" transform="translate(317.578125 0)"/>
      <use xlink:href="#DejaVuSans-72" transform="translate(379.101562 0)"/>
      <use xlink:href="#DejaVuSans-20" transform="translate(420.214844 0)"/>
      <use xlink:href="#DejaVuSans-71" transform="translate(452.001953 0)"/>
      <use xlink:href="#DejaVuSans-75" transform="translate(515.478516 0)"/>
      <use xlink:href="#DejaVuSans-65" transform="translate(578.857422 0)"/>
      <use xlink:href="#DejaVuSans-72" transform="translate(640.380859 0)"/>
      <use xlink:href="#DejaVuSans-79" transform="translate(681.494141 0)"/>
      <use xlink:href="#DejaVuSans-20" transform="translate(740.673828 0)"/>
      <use xlink:href="#DejaVuSans-28" transform="translate(772.460938 0)"/>
      <use xlink:href="#DejaVuSans-6d" transform="translate(811.474609 0)"/>
      <use xlink:href="#DejaVuSans-69" transform="translate(908.886719 0)"/>
      <use xlink:href="#DejaVuSans-6c" transform="translate(936.669922 0)"/>
      <use xlink:href="#DejaVuSans-6c" transform="translate(964.453125 0)"/>
      <use xlink:href="#DejaVuSans-69" transform="translate(992.236328 0)"/>
      <use xlink:href="#DejaVuSans-63" transform="translate(1020.019531 0)"/>
      <use xlink:href="#DejaVuSans-65" transform="translate(1075 0)"/>
      <use xlink:href="#DejaVuSans-6e" transform="translate(1136.523438 0)"/>
      <use xlink:href="#DejaVuSans-74" transform="translate(1199.902344 0)"/>
      <use xlink:href="#DejaVuSans-73" transform="translate(1239.111328 0)"/>
      <use xlink:href="#DejaVuSans-29" transform="translate(1291.210938 0)"/>
     </g>
    </g>
   </g>
   <g id="matplotlib.axis_2">
    <g id="ytick_1">
     <g id="line2d_8">
      <defs>
       <path id="m454b2ed7fb" d="M 0 0 
L -3.5 0 
" style="stroke: #000000; stroke-width: 0.8"/>
      </defs>
      <g>
       <use xlink:href="#m454b2ed7fb" x="43.78125" y="340.495516" style="stroke: #000000; stroke-width: 0.8"/>
      </g>
     </g>
     <g id="text_9">
      <!-- 0.0 -->
      <g transform="translate(20.878125 344.294735) scale(0.1 -0.1)">
       <defs>
        <path id="DejaVuSans-2e" d="M 684 794 
L 1344 794 
L 1344 0 
L 684 0 
L 684 794 
z
" transform="scale(0.015625)"/>
       </defs>
       <use xlink:href="#DejaVuSans-30"/>
       <use xlink:href="#DejaVuSans-2e" transform="translate(63.623047 0)"/>
       <use xlink:href="#DejaVuSans-30" transform="translate(95.410156 0)"/>
      </g>
     </g>
    </g>
    <g id="ytick_2">
     <g id="line2d_9">
      <g>
       <use xlink:href="#m454b2ed7fb" x="43.78125" y="282.645082" style="stroke: #000000; stroke-width: 0.8"/>
      </g>
     </g>
     <g id="text_10">
      <!-- 0.2 -->
      <g transform="translate(20.878125 286.4443) scale(0.1 -0.1)">
       <use xlink:href="#DejaVuSans-30"/>
       <use xlink:href="#DejaVuSans-2e" transform="translate(63.623047 0)"/>
       <use xlink:href="#DejaVuSans-32" transform="translate(95.410156 0)"/>
      </g>
     </g>
    </g>
    <g id="ytick_3">
     <g id="line2d_10">
      <g>
       <use xlink:href="#m454b2ed7fb" x="43.78125" y="224.794647" style="stroke: #000000; stroke-width: 0.8"/>
      </g>
     </g>
     <g id="text_11">
      <!-- 0.4 -->
      <g transform="translate(20.878125 228.593865) scale(0.1 -0.1)">
       <defs>
        <path id="DejaVuSans-34" d="M 2419 4116 
L 825 1625 
L 2419 1625 
L 2419 4116 
z
M 2253 4666 
L 3047 4666 
L 3047 1625 
L 3713 1625 
L 3713 1100 
L 3047 1100 
L 3047 0 
L 2419 0 
L 2419 1100 
L 313 1100 
L 313 1709 
L 2253 4666 
z
" transform="scale(0.015625)"/>
       </defs>
       <use xlink:href="#DejaVuSans-30"/>
       <use xlink:href="#DejaVuSans-2e" transform="translate(63.623047 0)"/>
       <use xlink:href="#DejaVuSans-34" transform="translate(95.410156 0)"/>
      </g>
     </g>
    </g>
    <g id="ytick_4">
     <g id="line2d_11">
      <g>
       <use xlink:href="#m454b2ed7fb" x="43.78125" y="166.944212" style="stroke: #000000; stroke-width: 0.8"/>
      </g>
     </g>
     <g id="text_12">
      <!-- 0.6 -->
      <g transform="translate(20.878125 170.743431) scale(0.1 -0.1)">
       <defs>
        <path id="DejaVuSans-36" d="M 2113 2584 
Q 1688 2584 1439 2293 
Q 1191 2003 1191 1497 
Q 1191 994 1439 701 
Q 1688 409 2113 409 
Q 2538 409 2786 701 
Q 3034 994 3034 1497 
Q 3034 2003 2786 2293 
Q 2538 2584 2113 2584 
z
M 3366 4563 
L 3366 3988 
Q 3128 4100 2886 4159 
Q 2644 4219 2406 4219 
Q 1781 4219 1451 3797 
Q 1122 3375 1075 2522 
Q 1259 2794 1537 2939 
Q 1816 3084 2150 3084 
Q 2853 3084 3261 2657 
Q 3669 2231 3669 1497 
Q 3669 778 3244 343 
Q 2819 -91 2113 -91 
Q 1303 -91 875 529 
Q 447 1150 447 2328 
Q 447 3434 972 4092 
Q 1497 4750 2381 4750 
Q 2619 4750 2861 4703 
Q 3103 4656 3366 4563 
z
" transform="scale(0.015625)"/>
       </defs>
       <use xlink:href="#DejaVuSans-30"/>
       <use xlink:href="#DejaVuSans-2e" transform="translate(63.623047 0)"/>
       <use xlink:href="#DejaVuSans-36" transform="translate(95.410156 0)"/>
      </g>
     </g>
    </g>
    <g id="ytick_5">
     <g id="line2d_12">
      <g>
       <use xlink:href="#m454b2ed7fb" x="43.78125" y="109.093777" style="stroke: #000000; stroke-width: 0.8"/>
      </g>
     </g>
     <g id="text_13">
      <!-- 0.8 -->
      <g transform="translate(20.878125 112.892996) scale(0.1 -0.1)">
       <defs>
        <path id="DejaVuSans-38" d="M 2034 2216 
Q 1584 2216 1326 1975 
Q 1069 1734 1069 1313 
Q 1069 891 1326 650 
Q 1584 409 2034 409 
Q 2484 409 2743 651 
Q 3003 894 3003 1313 
Q 3003 1734 2745 1975 
Q 2488 2216 2034 2216 
z
M 1403 2484 
Q 997 2584 770 2862 
Q 544 3141 544 3541 
Q 544 4100 942 4425 
Q 1341 4750 2034 4750 
Q 2731 4750 3128 4425 
Q 3525 4100 3525 3541 
Q 3525 3141 3298 2862 
Q 3072 2584 2669 2484 
Q 3125 2378 3379 2068 
Q 3634 1759 3634 1313 
Q 3634 634 3220 271 
Q 2806 -91 2034 -91 
Q 1263 -91 848 271 
Q 434 634 434 1313 
Q 434 1759 690 2068 
Q 947 2378 1403 2484 
z
M 1172 3481 
Q 1172 3119 1398 2916 
Q 1625 2713 2034 2713 
Q 2441 2713 2670 2916 
Q 2900 3119 2900 3481 
Q 2900 3844 2670 4047 
Q 2441 4250 2034 4250 
Q 1625 4250 1398 4047 
Q 1172 3844 1172 3481 
z
" transform="scale(0.015625)"/>
       </defs>
       <use xlink:href="#DejaVuSans-30"/>
       <use xlink:href="#DejaVuSans-2e" transform="translate(63.623047 0)"/>
       <use xlink:href="#DejaVuSans-38" transform="translate(95.410156 0)"/>
      </g>
     </g>
    </g>
    <g id="ytick_6">
     <g id="line2d_13">
      <g>
       <use xlink:href="#m454b2ed7fb" x="43.78125" y="51.243342" style="stroke: #000000; stroke-width: 0.8"/>
      </g>
     </g>
     <g id="text_14">
      <!-- 1.0 -->
      <g transform="translate(20.878125 55.042561) scale(0.1 -0.1)">
       <use xlink:href="#DejaVuSans-31"/>
       <use xlink:href="#DejaVuSans-2e" transform="translate(63.623047 0)"/>
       <use xlink:href="#DejaVuSans-30" transform="translate(95.410156 0)"/>
      </g>
     </g>
    </g>
    <g id="text_15">
     <!-- Mean EQA -->
     <g transform="translate(14.798438 214.36625) rotate(-90) scale(0.1 -0.1)">
      <defs>
       <path id="DejaVuSans-4d" d="M 628 4666 
L 1569 4666 
L 2759 1491 
L 3956 4666 
L 4897 4666 
L 4897 0 
L 4281 0 
L 4281 4097 
L 3078 897 
L 2444 897 
L 1241 4097 
L 1241 0 
L 628 0 
L 628 4666 
z
" transform="scale(0.015625)"/>
       <path id="DejaVuSans-61" d="M 2194 1759 
Q 1497 1759 1228 1600 
Q 959 1441 959 1056 
Q 959 750 1161 570 
Q 1363 391 1709 391 
Q 2188 391 2477 730 
Q 2766 1069 2766 1631 
L 2766 1759 
L 2194 1759 
z
M 3341 1997 
L 3341 0 
L 2766 0 
L 2766 531 
Q 2569 213 2275 61 
Q 1981 -91 1556 -91 
Q 1019 -91 701 211 
Q 384 513 384 1019 
Q 384 1609 779 1909 
Q 1175 2209 1959 2209 
L 2766 2209 
L 2766 2266 
Q 2766 2663 2505 2880 
Q 2244 3097 1772 3097 
Q 1472 3097 1187 3025 
Q 903 2953 641 2809 
L 641 3341 
Q 956 3463 1253 3523 
Q 1550 3584 1831 3584 
Q 2591 3584 2966 3190 
Q 3341 2797 3341 1997 
z
" transform="scale(0.015625)"/>
       <path id="DejaVuSans-45" d="M 628 4666 
L 3578 4666 
L 3578 4134 
L 1259 4134 
L 1259 2753 
L 3481 2753 
L 3481 2222 
L 1259 2222 
L 1259 531 
L 3634 531 
L 3634 0 
L 628 0 
L 628 4666 
z
" transform="scale(0.015625)"/>
       <path id="DejaVuSans-51" d="M 2522 4238 
Q 1834 4238 1429 3725 
Q 1025 3213 1025 2328 
Q 1025 1447 1429 934 
Q 1834 422 2522 422 
Q 3209 422 3611 934 
Q 4013 1447 4013 2328 
Q 4013 3213 3611 3725 
Q 3209 4238 2522 4238 
z
M 3406 84 
L 4238 -825 
L 3475 -825 
L 2784 -78 
Q 2681 -84 2626 -87 
Q 2572 -91 2522 -91 
Q 1538 -91 948 567 
Q 359 1225 359 2328 
Q 359 3434 948 4092 
Q 1538 4750 2522 4750 
Q 3503 4750 4090 4092 
Q 4678 3434 4678 2328 
Q 4678 1516 4351 937 
Q 4025 359 3406 84 
z
" transform="scale(0.015625)"/>
       <path id="DejaVuSans-41" d="M 2188 4044 
L 1331 1722 
L 3047 1722 
L 2188 4044 
z
M 1831 4666 
L 2547 4666 
L 4325 0 
L 3669 0 
L 3244 1197 
L 1141 1197 
L 716 0 
L 50 0 
L 1831 4666 
z
" transform="scale(0.015625)"/>
      </defs>
      <use xlink:href="#DejaVuSans-4d"/>
      <use xlink:href="#DejaVuSans-65" transform="translate(86.279297 0)"/>
      <use xlink:href="#DejaVuSans-61" transform="translate(147.802734 0)"/>
      <use xlink:href="#DejaVuSans-6e" transform="translate(209.082031 0)"/>
      <use xlink:href="#DejaVuSans-20" transform="translate(272.460938 0)"/>
      <use xlink:href="#DejaVuSans-45" transform="translate(304.248047 0)"/>
      <use xlink:href="#DejaVuSans-51" transform="translate(367.431641 0)"/>
      <use xlink:href="#DejaVuSans-41" transform="translate(446.142578 0)"/>
     </g>
    </g>
   </g>
   <g id="PathCollection_1">
    <defs>
     <path id="md96b63b3e5" d="M 0 3.872983 
C 1.027127 3.872983 2.012324 3.464901 2.738613 2.738613 
C 3.464901 2.012324 3.872983 1.027127 3.872983 0 
C 3.872983 -1.027127 3.464901 -2.012324 2.738613 -2.738613 
C 2.012324 -3.464901 1.027127 -3.872983 0 -3.872983 
C -1.027127 -3.872983 -2.012324 -3.464901 -2.738613 -2.738613 
C -3.464901 -2.012324 -3.872983 -1.027127 -3.872983 0 
C -3.872983 1.027127 -3.464901 2.012324 -2.738613 2.738613 
C -2.012324 3.464901 -1.027127 3.872983 0 3.872983 
z
" style="stroke: #ffffff"/>
    </defs>
    <g clip-path="url(#pf81fb184a3)">
     <use xlink:href="#md96b63b3e5" x="66.964816" y="270.873979" style="fill: #bdbdbd; stroke: #ffffff"/>
    </g>
   </g>
   <g id="PathCollection_2">
    <g clip-path="url(#pf81fb184a3)">
     <use xlink:href="#md96b63b3e5" x="67.330126" y="237.690176" style="fill: #bdbdbd; stroke: #ffffff"/>
    </g>
   </g>
   <g id="PathCollection_3">
    <g clip-path="url(#pf81fb184a3)">
     <use xlink:href="#md96b63b3e5" x="64.64249" y="240.316862" style="fill: #bdbdbd; stroke: #ffffff"/>
    </g>
   </g>
   <g id="PathCollection_4">
    <g clip-path="url(#pf81fb184a3)">
     <use xlink:href="#md96b63b3e5" x="68.090567" y="340.495516" style="fill: #bdbdbd; stroke: #ffffff"/>
    </g>
   </g>
   <g id="PathCollection_5">
    <g clip-path="url(#pf81fb184a3)">
     <use xlink:href="#md96b63b3e5" x="64.072159" y="340.495516" style="fill: #bdbdbd; stroke: #ffffff"/>
    </g>
   </g>
   <g id="PathCollection_6">
    <g clip-path="url(#pf81fb184a3)">
     <use xlink:href="#md96b63b3e5" x="71.389538" y="340.495516" style="fill: #bdbdbd; stroke: #ffffff"/>
    </g>
   </g>
   <g id="PathCollection_7">
    <g clip-path="url(#pf81fb184a3)">
     <use xlink:href="#md96b63b3e5" x="68.537885" y="287.281296" style="fill: #bdbdbd; stroke: #ffffff"/>
    </g>
   </g>
   <g id="PathCollection_8">
    <g clip-path="url(#pf81fb184a3)">
     <use xlink:href="#md96b63b3e5" x="67.072918" y="211.518269" style="fill: #bdbdbd; stroke: #ffffff"/>
    </g>
   </g>
   <g id="PathCollection_9">
    <g clip-path="url(#pf81fb184a3)">
     <use xlink:href="#md96b63b3e5" x="72.392276" y="319.214821" style="fill: #bdbdbd; stroke: #ffffff"/>
    </g>
   </g>
   <g id="PathCollection_10">
    <g clip-path="url(#pf81fb184a3)">
     <use xlink:href="#md96b63b3e5" x="72.358727" y="318.801603" style="fill: #bdbdbd; stroke: #ffffff"/>
    </g>
   </g>
   <g id="patch_3">
    <path d="M 43.78125 354.958125 
L 43.78125 22.318125 
" style="fill: none; stroke: #000000; stroke-width: 0.8; stroke-linejoin: miter; stroke-linecap: square"/>
   </g>
   <g id="patch_4">
    <path d="M 43.78125 354.958125 
L 490.18125 354.958125 
" style="fill: none; stroke: #000000; stroke-width: 0.8; stroke-linejoin: miter; stroke-linecap: square"/>
   </g>
   <g id="PathCollection_11">
    <defs>
     <path id="m435195ccb7" d="M 0 4.472136 
C 1.186024 4.472136 2.323632 4.000923 3.162278 3.162278 
C 4.000923 2.323632 4.472136 1.186024 4.472136 0 
C 4.472136 -1.186024 4.000923 -2.323632 3.162278 -3.162278 
C 2.323632 -4.000923 1.186024 -4.472136 0 -4.472136 
C -1.186024 -4.472136 -2.323632 -4.000923 -3.162278 -3.162278 
C -4.000923 -2.323632 -4.472136 -1.186024 -4.472136 0 
C -4.472136 1.186024 -4.000923 2.323632 -3.162278 3.162278 
C -2.323632 4.000923 -1.186024 4.472136 0 4.472136 
z
" style="stroke: #ffffff"/>
    </defs>
    <g clip-path="url(#pf81fb184a3)">
     <use xlink:href="#m435195ccb7" x="328.519177" y="51.243342" style="fill: #2171b5; stroke: #ffffff"/>
    </g>
   </g>
   <g id="patch_5">
    <path d="M 68.495366 269.588757 
Q 197.740523 161.059898 326.129475 53.250006 
" style="fill: none; opacity: 0.4; stroke: #2171b5; stroke-linecap: round"/>
    <path d="M 321.780097 54.290633 
L 326.129475 53.250006 
L 324.35235 57.353885 
" style="fill: none; opacity: 0.4; stroke: #2171b5; stroke-linecap: round"/>
   </g>
   <g id="text_16">
    <!-- Neonatal mortality -->
    <g style="fill: #2171b5" transform="translate(333.519177 46.243342) scale(0.07 -0.07)">
     <defs>
      <path id="DejaVuSans-4e" d="M 628 4666 
L 1478 4666 
L 3547 763 
L 3547 4666 
L 4159 4666 
L 4159 0 
L 3309 0 
L 1241 3903 
L 1241 0 
L 628 0 
L 628 4666 
z
" transform="scale(0.015625)"/>
     </defs>
     <use xlink:href="#DejaVuSans-4e"/>
     <use xlink:href="#DejaVuSans-65" transform="translate(74.804688 0)"/>
     <use xlink:href="#DejaVuSans-6f" transform="translate(136.328125 0)"/>
     <use xlink:href="#DejaVuSans-6e" transform="translate(197.509766 0)"/>
     <use xlink:href="#DejaVuSans-61" transform="translate(260.888672 0)"/>
     <use xlink:href="#DejaVuSans-74" transform="translate(322.167969 0)"/>
     <use xlink:href="#DejaVuSans-61" transform="translate(361.376953 0)"/>
     <use xlink:href="#DejaVuSans-6c" transform="translate(422.65625 0)"/>
     <use xlink:href="#DejaVuSans-20" transform="translate(450.439453 0)"/>
     <use xlink:href="#DejaVuSans-6d" transform="translate(482.226562 0)"/>
     <use xlink:href="#DejaVuSans-6f" transform="translate(579.638672 0)"/>
     <use xlink:href="#DejaVuSans-72" transform="translate(640.820312 0)"/>
     <use xlink:href="#DejaVuSans-74" transform="translate(681.933594 0)"/>
     <use xlink:href="#DejaVuSans-61" transform="translate(721.142578 0)"/>
     <use xlink:href="#DejaVuSans-6c" transform="translate(782.421875 0)"/>
     <use xlink:href="#DejaVuSans-69" transform="translate(810.205078 0)"/>
     <use xlink:href="#DejaVuSans-74" transform="translate(837.988281 0)"/>
     <use xlink:href="#DejaVuSans-79" transform="translate(877.197266 0)"/>
    </g>
   </g>
   <g id="PathCollection_12">
    <g clip-path="url(#pf81fb184a3)">
     <use xlink:href="#m435195ccb7" x="335.52716" y="51.243342" style="fill: #2171b5; stroke: #ffffff"/>
    </g>
   </g>
   <g id="patch_6">
    <path d="M 68.971163 236.54935 
Q 201.429597 144.466096 332.970029 53.021024 
" style="fill: none; opacity: 0.4; stroke: #2171b5; stroke-linecap: round"/>
    <path d="M 328.544078 53.662081 
L 332.970029 53.021024 
L 330.827304 56.94642 
" style="fill: none; opacity: 0.4; stroke: #2171b5; stroke-linecap: round"/>
   </g>
   <g id="text_17">
    <!-- Infant mortality -->
    <g style="fill: #2171b5" transform="translate(340.52716 46.243342) scale(0.07 -0.07)">
     <defs>
      <path id="DejaVuSans-49" d="M 628 4666 
L 1259 4666 
L 1259 0 
L 628 0 
L 628 4666 
z
" transform="scale(0.015625)"/>
      <path id="DejaVuSans-66" d="M 2375 4863 
L 2375 4384 
L 1825 4384 
Q 1516 4384 1395 4259 
Q 1275 4134 1275 3809 
L 1275 3500 
L 2222 3500 
L 2222 3053 
L 1275 3053 
L 1275 0 
L 697 0 
L 697 3053 
L 147 3053 
L 147 3500 
L 697 3500 
L 697 3744 
Q 697 4328 969 4595 
Q 1241 4863 1831 4863 
L 2375 4863 
z
" transform="scale(0.015625)"/>
     </defs>
     <use xlink:href="#DejaVuSans-49"/>
     <use xlink:href="#DejaVuSans-6e" transform="translate(29.492188 0)"/>
     <use xlink:href="#DejaVuSans-66" transform="translate(92.871094 0)"/>
     <use xlink:href="#DejaVuSans-61" transform="translate(128.076172 0)"/>
     <use xlink:href="#DejaVuSans-6e" transform="translate(189.355469 0)"/>
     <use xlink:href="#DejaVuSans-74" transform="translate(252.734375 0)"/>
     <use xlink:href="#DejaVuSans-20" transform="translate(291.943359 0)"/>
     <use xlink:href="#DejaVuSans-6d" transform="translate(323.730469 0)"/>
     <use xlink:href="#DejaVuSans-6f" transform="translate(421.142578 0)"/>
     <use xlink:href="#DejaVuSans-72" transform="translate(482.324219 0)"/>
     <use xlink:href="#DejaVuSans-74" transform="translate(523.4375 0)"/>
     <use xlink:href="#DejaVuSans-61" transform="translate(562.646484 0)"/>
     <use xlink:href="#DejaVuSans-6c" transform="translate(623.925781 0)"/>
     <use xlink:href="#DejaVuSans-69" transform="translate(651.708984 0)"/>
     <use xlink:href="#DejaVuSans-74" transform="translate(679.492188 0)"/>
     <use xlink:href="#DejaVuSans-79" transform="translate(718.701172 0)"/>
    </g>
   </g>
   <g id="PathCollection_13">
    <g clip-path="url(#pf81fb184a3)">
     <use xlink:href="#m435195ccb7" x="349.174091" y="51.243342" style="fill: #2171b5; stroke: #ffffff"/>
    </g>
   </g>
   <g id="patch_7">
    <path d="M 66.307496 239.210452 
Q 206.908846 145.779733 346.579008 52.967796 
" style="fill: none; opacity: 0.4; stroke: #2171b5; stroke-linecap: round"/>
    <path d="M 342.140581 53.515857 
L 346.579008 52.967796 
L 344.354401 56.847374 
" style="fill: none; opacity: 0.4; stroke: #2171b5; stroke-linecap: round"/>
   </g>
   <g id="text_18">
    <!-- Under-5 mortality -->
    <g style="fill: #2171b5" transform="translate(354.174091 46.243342) scale(0.07 -0.07)">
     <defs>
      <path id="DejaVuSans-55" d="M 556 4666 
L 1191 4666 
L 1191 1831 
Q 1191 1081 1462 751 
Q 1734 422 2344 422 
Q 2950 422 3222 751 
Q 3494 1081 3494 1831 
L 3494 4666 
L 4128 4666 
L 4128 1753 
Q 4128 841 3676 375 
Q 3225 -91 2344 -91 
Q 1459 -91 1007 375 
Q 556 841 556 1753 
L 556 4666 
z
" transform="scale(0.015625)"/>
      <path id="DejaVuSans-64" d="M 2906 2969 
L 2906 4863 
L 3481 4863 
L 3481 0 
L 2906 0 
L 2906 525 
Q 2725 213 2448 61 
Q 2172 -91 1784 -91 
Q 1150 -91 751 415 
Q 353 922 353 1747 
Q 353 2572 751 3078 
Q 1150 3584 1784 3584 
Q 2172 3584 2448 3432 
Q 2725 3281 2906 2969 
z
M 947 1747 
Q 947 1113 1208 752 
Q 1469 391 1925 391 
Q 2381 391 2643 752 
Q 2906 1113 2906 1747 
Q 2906 2381 2643 2742 
Q 2381 3103 1925 3103 
Q 1469 3103 1208 2742 
Q 947 2381 947 1747 
z
" transform="scale(0.015625)"/>
      <path id="DejaVuSans-2d" d="M 313 2009 
L 1997 2009 
L 1997 1497 
L 313 1497 
L 313 2009 
z
" transform="scale(0.015625)"/>
     </defs>
     <use xlink:href="#DejaVuSans-55"/>
     <use xlink:href="#DejaVuSans-6e" transform="translate(73.193359 0)"/>
     <use xlink:href="#DejaVuSans-64" transform="translate(136.572266 0)"/>
     <use xlink:href="#DejaVuSans-65" transform="translate(200.048828 0)"/>
     <use xlink:href="#DejaVuSans-72" transform="translate(261.572266 0)"/>
     <use xlink:href="#DejaVuSans-2d" transform="translate(296.310547 0)"/>
     <use xlink:href="#DejaVuSans-35" transform="translate(332.394531 0)"/>
     <use xlink:href="#DejaVuSans-20" transform="translate(396.017578 0)"/>
     <use xlink:href="#DejaVuSans-6d" transform="translate(427.804688 0)"/>
     <use xlink:href="#DejaVuSans-6f" transform="translate(525.216797 0)"/>
     <use xlink:href="#DejaVuSans-72" transform="translate(586.398438 0)"/>
     <use xlink:href="#DejaVuSans-74" transform="translate(627.511719 0)"/>
     <use xlink:href="#DejaVuSans-61" transform="translate(666.720703 0)"/>
     <use xlink:href="#DejaVuSans-6c" transform="translate(728 0)"/>
     <use xlink:href="#DejaVuSans-69" transform="translate(755.783203 0)"/>
     <use xlink:href="#DejaVuSans-74" transform="translate(783.566406 0)"/>
     <use xlink:href="#DejaVuSans-79" transform="translate(822.775391 0)"/>
    </g>
   </g>
   <g id="PathCollection_14">
    <g clip-path="url(#pf81fb184a3)">
     <use xlink:href="#m435195ccb7" x="409.487484" y="51.243342" style="fill: #2171b5; stroke: #ffffff"/>
    </g>
   </g>
   <g id="patch_8">
    <path d="M 69.614288 339.204527 
Q 238.78724 195.870942 407.107165 53.260093 
" style="fill: none; opacity: 0.4; stroke: #2171b5; stroke-linecap: round"/>
    <path d="M 402.762418 54.31989 
L 407.107165 53.260093 
L 405.348155 57.371769 
" style="fill: none; opacity: 0.4; stroke: #2171b5; stroke-linecap: round"/>
   </g>
   <g id="text_19">
    <!-- Child 1-4 mortality -->
    <g style="fill: #2171b5" transform="translate(414.487484 46.243342) scale(0.07 -0.07)">
     <defs>
      <path id="DejaVuSans-68" d="M 3513 2113 
L 3513 0 
L 2938 0 
L 2938 2094 
Q 2938 2591 2744 2837 
Q 2550 3084 2163 3084 
Q 1697 3084 1428 2787 
Q 1159 2491 1159 1978 
L 1159 0 
L 581 0 
L 581 4863 
L 1159 4863 
L 1159 2956 
Q 1366 3272 1645 3428 
Q 1925 3584 2291 3584 
Q 2894 3584 3203 3211 
Q 3513 2838 3513 2113 
z
" transform="scale(0.015625)"/>
     </defs>
     <use xlink:href="#DejaVuSans-43"/>
     <use xlink:href="#DejaVuSans-68" transform="translate(69.824219 0)"/>
     <use xlink:href="#DejaVuSans-69" transform="translate(133.203125 0)"/>
     <use xlink:href="#DejaVuSans-6c" transform="translate(160.986328 0)"/>
     <use xlink:href="#DejaVuSans-64" transform="translate(188.769531 0)"/>
     <use xlink:href="#DejaVuSans-20" transform="translate(252.246094 0)"/>
     <use xlink:href="#DejaVuSans-31" transform="translate(284.033203 0)"/>
     <use xlink:href="#DejaVuSans-2d" transform="translate(347.65625 0)"/>
     <use xlink:href="#DejaVuSans-34" transform="translate(383.740234 0)"/>
     <use xlink:href="#DejaVuSans-20" transform="translate(447.363281 0)"/>
     <use xlink:href="#DejaVuSans-6d" transform="translate(479.150391 0)"/>
     <use xlink:href="#DejaVuSans-6f" transform="translate(576.5625 0)"/>
     <use xlink:href="#DejaVuSans-72" transform="translate(637.744141 0)"/>
     <use xlink:href="#DejaVuSans-74" transform="translate(678.857422 0)"/>
     <use xlink:href="#DejaVuSans-61" transform="translate(718.066406 0)"/>
     <use xlink:href="#DejaVuSans-6c" transform="translate(779.345703 0)"/>
     <use xlink:href="#DejaVuSans-69" transform="translate(807.128906 0)"/>
     <use xlink:href="#DejaVuSans-74" transform="translate(834.912109 0)"/>
     <use xlink:href="#DejaVuSans-79" transform="translate(874.121094 0)"/>
    </g>
   </g>
   <g id="PathCollection_15">
    <defs>
     <path id="m78aba64a3b" d="M 0 4.472136 
C 1.186024 4.472136 2.323632 4.000923 3.162278 3.162278 
C 4.000923 2.323632 4.472136 1.186024 4.472136 0 
C 4.472136 -1.186024 4.000923 -2.323632 3.162278 -3.162278 
C 2.323632 -4.000923 1.186024 -4.472136 0 -4.472136 
C -1.186024 -4.472136 -2.323632 -4.000923 -3.162278 -3.162278 
C -4.000923 -2.323632 -4.472136 -1.186024 -4.472136 0 
C -4.472136 1.186024 -4.000923 2.323632 -3.162278 3.162278 
C -2.323632 4.000923 -1.186024 4.472136 0 4.472136 
z
" style="stroke: #ffffff"/>
    </defs>
    <g clip-path="url(#pf81fb184a3)">
     <use xlink:href="#m78aba64a3b" x="469.890341" y="51.243342" style="fill: #6a3d9a; stroke: #ffffff"/>
    </g>
   </g>
   <g id="patch_9">
    <path d="M 65.703829 339.332523 
Q 266.981447 195.869289 467.348628 53.054982 
" style="fill: none; opacity: 0.4; stroke: #6a3d9a; stroke-linecap: round"/>
    <path d="M 462.930516 53.74801 
L 467.348628 53.054982 
L 465.252183 57.005288 
" style="fill: none; opacity: 0.4; stroke: #6a3d9a; stroke-linecap: round"/>
   </g>
   <g id="text_20">
    <!-- Primary completion -->
    <g style="fill: #6a3d9a" transform="translate(474.890341 46.243342) scale(0.07 -0.07)">
     <defs>
      <path id="DejaVuSans-50" d="M 1259 4147 
L 1259 2394 
L 2053 2394 
Q 2494 2394 2734 2622 
Q 2975 2850 2975 3272 
Q 2975 3691 2734 3919 
Q 2494 4147 2053 4147 
L 1259 4147 
z
M 628 4666 
L 2053 4666 
Q 2838 4666 3239 4311 
Q 3641 3956 3641 3272 
Q 3641 2581 3239 2228 
Q 2838 1875 2053 1875 
L 1259 1875 
L 1259 0 
L 628 0 
L 628 4666 
z
" transform="scale(0.015625)"/>
     </defs>
     <use xlink:href="#DejaVuSans-50"/>
     <use xlink:href="#DejaVuSans-72" transform="translate(58.552734 0)"/>
     <use xlink:href="#DejaVuSans-69" transform="translate(99.666016 0)"/>
     <use xlink:href="#DejaVuSans-6d" transform="translate(127.449219 0)"/>
     <use xlink:href="#DejaVuSans-61" transform="translate(224.861328 0)"/>
     <use xlink:href="#DejaVuSans-72" transform="translate(286.140625 0)"/>
     <use xlink:href="#DejaVuSans-79" transform="translate(327.253906 0)"/>
     <use xlink:href="#DejaVuSans-20" transform="translate(386.433594 0)"/>
     <use xlink:href="#DejaVuSans-63" transform="translate(418.220703 0)"/>
     <use xlink:href="#DejaVuSans-6f" transform="translate(473.201172 0)"/>
     <use xlink:href="#DejaVuSans-6d" transform="translate(534.382812 0)"/>
     <use xlink:href="#DejaVuSans-70" transform="translate(631.794922 0)"/>
     <use xlink:href="#DejaVuSans-6c" transform="translate(695.271484 0)"/>
     <use xlink:href="#DejaVuSans-65" transform="translate(723.054688 0)"/>
     <use xlink:href="#DejaVuSans-74" transform="translate(784.578125 0)"/>
     <use xlink:href="#DejaVuSans-69" transform="translate(823.787109 0)"/>
     <use xlink:href="#DejaVuSans-6f" transform="translate(851.570312 0)"/>
     <use xlink:href="#DejaVuSans-6e" transform="translate(912.751953 0)"/>
    </g>
   </g>
   <g id="PathCollection_16">
    <defs>
     <path id="mf1da9a129a" d="M 0 4.472136 
C 1.186024 4.472136 2.323632 4.000923 3.162278 3.162278 
C 4.000923 2.323632 4.472136 1.186024 4.472136 0 
C 4.472136 -1.186024 4.000923 -2.323632 3.162278 -3.162278 
C 2.323632 -4.000923 1.186024 -4.472136 0 -4.472136 
C -1.186024 -4.472136 -2.323632 -4.000923 -3.162278 -3.162278 
C -4.000923 -2.323632 -4.472136 -1.186024 -4.472136 0 
C -4.472136 1.186024 -4.000923 2.323632 -3.162278 3.162278 
C -2.323632 4.000923 -1.186024 4.472136 0 4.472136 
z
" style="stroke: #ffffff"/>
    </defs>
    <g clip-path="url(#pf81fb184a3)">
     <use xlink:href="#mf1da9a129a" x="370.51862" y="339.406464" style="fill: #d94801; stroke: #ffffff"/>
    </g>
   </g>
   <g id="patch_10">
    <path d="M 73.393287 340.488221 
Q 220.956257 339.950982 367.4012 339.417814 
" style="fill: none; opacity: 0.4; stroke: #d94801; stroke-linecap: round"/>
    <path d="M 363.393945 337.43239 
L 367.4012 339.417814 
L 363.408508 341.432364 
" style="fill: none; opacity: 0.4; stroke: #d94801; stroke-linecap: round"/>
   </g>
   <g id="text_21">
    <!-- Births under 18 -->
    <g style="fill: #d94801" transform="translate(375.51862 334.406464) scale(0.07 -0.07)">
     <defs>
      <path id="DejaVuSans-42" d="M 1259 2228 
L 1259 519 
L 2272 519 
Q 2781 519 3026 730 
Q 3272 941 3272 1375 
Q 3272 1813 3026 2020 
Q 2781 2228 2272 2228 
L 1259 2228 
z
M 1259 4147 
L 1259 2741 
L 2194 2741 
Q 2656 2741 2882 2914 
Q 3109 3088 3109 3444 
Q 3109 3797 2882 3972 
Q 2656 4147 2194 4147 
L 1259 4147 
z
M 628 4666 
L 2241 4666 
Q 2963 4666 3353 4366 
Q 3744 4066 3744 3513 
Q 3744 3084 3544 2831 
Q 3344 2578 2956 2516 
Q 3422 2416 3680 2098 
Q 3938 1781 3938 1306 
Q 3938 681 3513 340 
Q 3088 0 2303 0 
L 628 0 
L 628 4666 
z
" transform="scale(0.015625)"/>
     </defs>
     <use xlink:href="#DejaVuSans-42"/>
     <use xlink:href="#DejaVuSans-69" transform="translate(68.603516 0)"/>
     <use xlink:href="#DejaVuSans-72" transform="translate(96.386719 0)"/>
     <use xlink:href="#DejaVuSans-74" transform="translate(137.5 0)"/>
     <use xlink:href="#DejaVuSans-68" transform="translate(176.708984 0)"/>
     <use xlink:href="#DejaVuSans-73" transform="translate(240.087891 0)"/>
     <use xlink:href="#DejaVuSans-20" transform="translate(292.1875 0)"/>
     <use xlink:href="#DejaVuSans-75" transform="translate(323.974609 0)"/>
     <use xlink:href="#DejaVuSans-6e" transform="translate(387.353516 0)"/>
     <use xlink:href="#DejaVuSans-64" transform="translate(450.732422 0)"/>
     <use xlink:href="#DejaVuSans-65" transform="translate(514.208984 0)"/>
     <use xlink:href="#DejaVuSans-72" transform="translate(575.732422 0)"/>
     <use xlink:href="#DejaVuSans-20" transform="translate(616.845703 0)"/>
     <use xlink:href="#DejaVuSans-31" transform="translate(648.632812 0)"/>
     <use xlink:href="#DejaVuSans-38" transform="translate(712.255859 0)"/>
    </g>
   </g>
   <g id="PathCollection_17">
    <g clip-path="url(#pf81fb184a3)">
     <use xlink:href="#mf1da9a129a" x="367.077999" y="340.495516" style="fill: #d94801; stroke: #ffffff"/>
    </g>
   </g>
   <g id="patch_11">
    <path d="M 70.510356 287.632885 
Q 217.809933 313.888761 364.008824 339.948442 
" style="fill: none; opacity: 0.4; stroke: #d94801; stroke-linecap: round"/>
    <path d="M 360.421858 337.277548 
L 364.008824 339.948442 
L 359.719929 341.215478 
" style="fill: none; opacity: 0.4; stroke: #d94801; stroke-linecap: round"/>
   </g>
   <g id="text_22">
    <!-- C-section rate -->
    <g style="fill: #d94801" transform="translate(372.077999 335.495516) scale(0.07 -0.07)">
     <use xlink:href="#DejaVuSans-43"/>
     <use xlink:href="#DejaVuSans-2d" transform="translate(69.824219 0)"/>
     <use xlink:href="#DejaVuSans-73" transform="translate(105.908203 0)"/>
     <use xlink:href="#DejaVuSans-65" transform="translate(158.007812 0)"/>
     <use xlink:href="#DejaVuSans-63" transform="translate(219.53125 0)"/>
     <use xlink:href="#DejaVuSans-74" transform="translate(274.511719 0)"/>
     <use xlink:href="#DejaVuSans-69" transform="translate(313.720703 0)"/>
     <use xlink:href="#DejaVuSans-6f" transform="translate(341.503906 0)"/>
     <use xlink:href="#DejaVuSans-6e" transform="translate(402.685547 0)"/>
     <use xlink:href="#DejaVuSans-20" transform="translate(466.064453 0)"/>
     <use xlink:href="#DejaVuSans-72" transform="translate(497.851562 0)"/>
     <use xlink:href="#DejaVuSans-61" transform="translate(538.964844 0)"/>
     <use xlink:href="#DejaVuSans-74" transform="translate(600.244141 0)"/>
     <use xlink:href="#DejaVuSans-65" transform="translate(639.453125 0)"/>
    </g>
   </g>
   <g id="PathCollection_18">
    <defs>
     <path id="m2aab65ad05" d="M 0 4.472136 
C 1.186024 4.472136 2.323632 4.000923 3.162278 3.162278 
C 4.000923 2.323632 4.472136 1.186024 4.472136 0 
C 4.472136 -1.186024 4.000923 -2.323632 3.162278 -3.162278 
C 2.323632 -4.000923 1.186024 -4.472136 0 -4.472136 
C -1.186024 -4.472136 -2.323632 -4.000923 -3.162278 -3.162278 
C -4.000923 -2.323632 -4.472136 -1.186024 -4.472136 0 
C -4.472136 1.186024 -4.000923 2.323632 -3.162278 3.162278 
C -2.323632 4.000923 -1.186024 4.472136 0 4.472136 
z
" style="stroke: #ffffff"/>
    </defs>
    <g clip-path="url(#pf81fb184a3)">
     <use xlink:href="#m2aab65ad05" x="300.796636" y="94.747802" style="fill: #238b45; stroke: #ffffff"/>
    </g>
   </g>
   <g id="patch_12">
    <path d="M 68.859655 210.625599 
Q 183.934528 153.13316 298.009246 96.140408 
" style="fill: none; opacity: 0.4; stroke: #238b45; stroke-linecap: round"/>
    <path d="M 293.53711 96.139009 
L 298.009246 96.140408 
L 295.324845 99.717277 
" style="fill: none; opacity: 0.4; stroke: #238b45; stroke-linecap: round"/>
   </g>
   <g id="text_23">
    <!-- Stunting -->
    <g style="fill: #238b45" transform="translate(305.796636 89.747802) scale(0.07 -0.07)">
     <defs>
      <path id="DejaVuSans-53" d="M 3425 4513 
L 3425 3897 
Q 3066 4069 2747 4153 
Q 2428 4238 2131 4238 
Q 1616 4238 1336 4038 
Q 1056 3838 1056 3469 
Q 1056 3159 1242 3001 
Q 1428 2844 1947 2747 
L 2328 2669 
Q 3034 2534 3370 2195 
Q 3706 1856 3706 1288 
Q 3706 609 3251 259 
Q 2797 -91 1919 -91 
Q 1588 -91 1214 -16 
Q 841 59 441 206 
L 441 856 
Q 825 641 1194 531 
Q 1563 422 1919 422 
Q 2459 422 2753 634 
Q 3047 847 3047 1241 
Q 3047 1584 2836 1778 
Q 2625 1972 2144 2069 
L 1759 2144 
Q 1053 2284 737 2584 
Q 422 2884 422 3419 
Q 422 4038 858 4394 
Q 1294 4750 2059 4750 
Q 2388 4750 2728 4690 
Q 3069 4631 3425 4513 
z
" transform="scale(0.015625)"/>
      <path id="DejaVuSans-67" d="M 2906 1791 
Q 2906 2416 2648 2759 
Q 2391 3103 1925 3103 
Q 1463 3103 1205 2759 
Q 947 2416 947 1791 
Q 947 1169 1205 825 
Q 1463 481 1925 481 
Q 2391 481 2648 825 
Q 2906 1169 2906 1791 
z
M 3481 434 
Q 3481 -459 3084 -895 
Q 2688 -1331 1869 -1331 
Q 1566 -1331 1297 -1286 
Q 1028 -1241 775 -1147 
L 775 -588 
Q 1028 -725 1275 -790 
Q 1522 -856 1778 -856 
Q 2344 -856 2625 -561 
Q 2906 -266 2906 331 
L 2906 616 
Q 2728 306 2450 153 
Q 2172 0 1784 0 
Q 1141 0 747 490 
Q 353 981 353 1791 
Q 353 2603 747 3093 
Q 1141 3584 1784 3584 
Q 2172 3584 2450 3431 
Q 2728 3278 2906 2969 
L 2906 3500 
L 3481 3500 
L 3481 434 
z
" transform="scale(0.015625)"/>
     </defs>
     <use xlink:href="#DejaVuSans-53"/>
     <use xlink:href="#DejaVuSans-74" transform="translate(63.476562 0)"/>
     <use xlink:href="#DejaVuSans-75" transform="translate(102.685547 0)"/>
     <use xlink:href="#DejaVuSans-6e" transform="translate(166.064453 0)"/>
     <use xlink:href="#DejaVuSans-74" transform="translate(229.443359 0)"/>
     <use xlink:href="#DejaVuSans-69" transform="translate(268.652344 0)"/>
     <use xlink:href="#DejaVuSans-6e" transform="translate(296.435547 0)"/>
     <use xlink:href="#DejaVuSans-67" transform="translate(359.814453 0)"/>
    </g>
   </g>
   <g id="PathCollection_19">
    <g clip-path="url(#pf81fb184a3)">
     <use xlink:href="#m2aab65ad05" x="254.748963" y="51.243342" style="fill: #238b45; stroke: #ffffff"/>
    </g>
   </g>
   <g id="patch_13">
    <path d="M 73.519206 317.558808 
Q 163.571336 185.228028 252.994464 53.821562 
" style="fill: none; opacity: 0.4; stroke: #238b45; stroke-linecap: round"/>
    <path d="M 249.090614 56.003293 
L 252.994464 53.821562 
L 252.397539 58.253681 
" style="fill: none; opacity: 0.4; stroke: #238b45; stroke-linecap: round"/>
   </g>
   <g id="text_24">
    <!-- Underweight -->
    <g style="fill: #238b45" transform="translate(259.748963 46.243342) scale(0.07 -0.07)">
     <defs>
      <path id="DejaVuSans-77" d="M 269 3500 
L 844 3500 
L 1563 769 
L 2278 3500 
L 2956 3500 
L 3675 769 
L 4391 3500 
L 4966 3500 
L 4050 0 
L 3372 0 
L 2619 2869 
L 1863 0 
L 1184 0 
L 269 3500 
z
" transform="scale(0.015625)"/>
     </defs>
     <use xlink:href="#DejaVuSans-55"/>
     <use xlink:href="#DejaVuSans-6e" transform="translate(73.193359 0)"/>
     <use xlink:href="#DejaVuSans-64" transform="translate(136.572266 0)"/>
     <use xlink:href="#DejaVuSans-65" transform="translate(200.048828 0)"/>
     <use xlink:href="#DejaVuSans-72" transform="translate(261.572266 0)"/>
     <use xlink:href="#DejaVuSans-77" transform="translate(302.685547 0)"/>
     <use xlink:href="#DejaVuSans-65" transform="translate(384.472656 0)"/>
     <use xlink:href="#DejaVuSans-69" transform="translate(445.996094 0)"/>
     <use xlink:href="#DejaVuSans-67" transform="translate(473.779297 0)"/>
     <use xlink:href="#DejaVuSans-68" transform="translate(537.255859 0)"/>
     <use xlink:href="#DejaVuSans-74" transform="translate(600.634766 0)"/>
    </g>
   </g>
   <g id="PathCollection_20">
    <g clip-path="url(#pf81fb184a3)">
     <use xlink:href="#m2aab65ad05" x="282.754805" y="51.243342" style="fill: #238b45; stroke: #ffffff"/>
    </g>
   </g>
   <g id="patch_14">
    <path d="M 73.596332 317.227755 
Q 177.557215 185.021903 280.827003 53.694906 
" style="fill: none; opacity: 0.4; stroke: #238b45; stroke-linecap: round"/>
    <path d="M 276.782323 55.602932 
L 280.827003 53.694906 
L 279.926615 58.075466 
" style="fill: none; opacity: 0.4; stroke: #238b45; stroke-linecap: round"/>
   </g>
   <g id="text_25">
    <!-- Wasting -->
    <g style="fill: #238b45" transform="translate(287.754805 46.243342) scale(0.07 -0.07)">
     <defs>
      <path id="DejaVuSans-57" d="M 213 4666 
L 850 4666 
L 1831 722 
L 2809 4666 
L 3519 4666 
L 4500 722 
L 5478 4666 
L 6119 4666 
L 4947 0 
L 4153 0 
L 3169 4050 
L 2175 0 
L 1381 0 
L 213 4666 
z
" transform="scale(0.015625)"/>
     </defs>
     <use xlink:href="#DejaVuSans-57"/>
     <use xlink:href="#DejaVuSans-61" transform="translate(92.501953 0)"/>
     <use xlink:href="#DejaVuSans-73" transform="translate(153.78125 0)"/>
     <use xlink:href="#DejaVuSans-74" transform="translate(205.880859 0)"/>
     <use xlink:href="#DejaVuSans-69" transform="translate(245.089844 0)"/>
     <use xlink:href="#DejaVuSans-6e" transform="translate(272.873047 0)"/>
     <use xlink:href="#DejaVuSans-67" transform="translate(336.251953 0)"/>
    </g>
   </g>
   <g id="text_26">
    <!-- Figure 5: Cost–Accuracy Tradeoff (baseline_latest) -->
    <g transform="translate(117.465937 16.318125) scale(0.12 -0.12)">
     <defs>
      <path id="DejaVuSans-46" d="M 628 4666 
L 3309 4666 
L 3309 4134 
L 1259 4134 
L 1259 2759 
L 3109 2759 
L 3109 2228 
L 1259 2228 
L 1259 0 
L 628 0 
L 628 4666 
z
" transform="scale(0.015625)"/>
      <path id="DejaVuSans-3a" d="M 750 794 
L 1409 794 
L 1409 0 
L 750 0 
L 750 794 
z
M 750 3309 
L 1409 3309 
L 1409 2516 
L 750 2516 
L 750 3309 
z
" transform="scale(0.015625)"/>
      <path id="DejaVuSans-2013" d="M 313 1978 
L 2888 1978 
L 2888 1528 
L 313 1528 
L 313 1978 
z
" transform="scale(0.015625)"/>
      <path id="DejaVuSans-54" d="M -19 4666 
L 3928 4666 
L 3928 4134 
L 2272 4134 
L 2272 0 
L 1638 0 
L 1638 4134 
L -19 4134 
L -19 4666 
z
" transform="scale(0.015625)"/>
      <path id="DejaVuSans-62" d="M 3116 1747 
Q 3116 2381 2855 2742 
Q 2594 3103 2138 3103 
Q 1681 3103 1420 2742 
Q 1159 2381 1159 1747 
Q 1159 1113 1420 752 
Q 1681 391 2138 391 
Q 2594 391 2855 752 
Q 3116 1113 3116 1747 
z
M 1159 2969 
Q 1341 3281 1617 3432 
Q 1894 3584 2278 3584 
Q 2916 3584 3314 3078 
Q 3713 2572 3713 1747 
Q 3713 922 3314 415 
Q 2916 -91 2278 -91 
Q 1894 -91 1617 61 
Q 1341 213 1159 525 
L 1159 0 
L 581 0 
L 581 4863 
L 1159 4863 
L 1159 2969 
z
" transform="scale(0.015625)"/>
      <path id="DejaVuSans-5f" d="M 3263 -1063 
L 3263 -1509 
L -63 -1509 
L -63 -1063 
L 3263 -1063 
z
" transform="scale(0.015625)"/>
     </defs>
     <use xlink:href="#DejaVuSans-46"/>
     <use xlink:href="#DejaVuSans-69" transform="translate(50.269531 0)"/>
     <use xlink:href="#DejaVuSans-67" transform="translate(78.052734 0)"/>
     <use xlink:href="#DejaVuSans-75" transform="translate(141.529297 0)"/>
     <use xlink:href="#DejaVuSans-72" transform="translate(204.908203 0)"/>
     <use xlink:href="#DejaVuSans-65" transform="translate(243.771484 0)"/>
     <use xlink:href="#DejaVuSans-20" transform="translate(305.294922 0)"/>
     <use xlink:href="#DejaVuSans-35" transform="translate(337.082031 0)"/>
     <use xlink:href="#DejaVuSans-3a" transform="translate(400.705078 0)"/>
     <use xlink:href="#DejaVuSans-20" transform="translate(434.396484 0)"/>
     <use xlink:href="#DejaVuSans-43" transform="translate(466.183594 0)"/>
     <use xlink:href="#DejaVuSans-6f" transform="translate(536.007812 0)"/>
     <use xlink:href="#DejaVuSans-73" transform="translate(597.189453 0)"/>
     <use xlink:href="#DejaVuSans-74" transform="translate(649.289062 0)"/>
     <use xlink:href="#DejaVuSans-2013" transform="translate(688.498047 0)"/>
     <use xlink:href="#DejaVuSans-41" transform="translate(738.498047 0)"/>
     <use xlink:href="#DejaVuSans-63" transform="translate(805.15625 0)"/>
     <use xlink:href="#DejaVuSans-63" transform="translate(860.136719 0)"/>
     <use xlink:href="#DejaVuSans-75" transform="translate(915.117188 0)"/>
     <use xlink:href="#DejaVuSans-72" transform="translate(978.496094 0)"/>
     <use xlink:href="#DejaVuSans-61" transform="translate(1019.609375 0)"/>
     <use xlink:href="#DejaVuSans-63" transform="translate(1080.888672 0)"/>
     <use xlink:href="#DejaVuSans-79" transform="translate(1135.869141 0)"/>
     <use xlink:href="#DejaVuSans-20" transform="translate(1195.048828 0)"/>
     <use xlink:href="#DejaVuSans-54" transform="translate(1226.835938 0)"/>
     <use xlink:href="#DejaVuSans-72" transform="translate(1273.169922 0)"/>
     <use xlink:href="#DejaVuSans-61" transform="translate(1314.283203 0)"/>
     <use xlink:href="#DejaVuSans-64" transform="translate(1375.5625 0)"/>
     <use xlink:href="#DejaVuSans-65" transform="translate(1439.039062 0)"/>
     <use xlink:href="#DejaVuSans-6f" transform="translate(1500.5625 0)"/>
     <use xlink:href="#DejaVuSans-66" transform="translate(1561.744141 0)"/>
     <use xlink:href="#DejaVuSans-66" transform="translate(1596.949219 0)"/>
     <use xlink:href="#DejaVuSans-20" transform="translate(1632.154297 0)"/>
     <use xlink:href="#DejaVuSans-28" transform="translate(1663.941406 0)"/>
     <use xlink:href="#DejaVuSans-62" transform="translate(1702.955078 0)"/>
     <use xlink:href="#DejaVuSans-61" transform="translate(1766.431641 0)"/>
     <use xlink:href="#DejaVuSans-73" transform="translate(1827.710938 0)"/>
     <use xlink:href="#DejaVuSans-65" transform="translate(1879.810547 0)"/>
     <use xlink:href="#DejaVuSans-6c" transform="translate(1941.333984 0)"/>
     <use xlink:href="#DejaVuSans-69" transform="translate(1969.117188 0)"/>
     <use xlink:href="#DejaVuSans-6e" transform="translate(1996.900391 0)"/>
     <use xlink:href="#DejaVuSans-65" transform="translate(2060.279297 0)"/>
     <use xlink:href="#DejaVuSans-5f" transform="translate(2121.802734 0)"/>
     <use xlink:href="#DejaVuSans-6c" transform="translate(2171.802734 0)"/>
     <use xlink:href="#DejaVuSans-61" transform="translate(2199.585938 0)"/>
     <use xlink:href="#DejaVuSans-74" transform="translate(2260.865234 0)"/>
     <use xlink:href="#DejaVuSans-65" transform="translate(2300.074219 0)"/>
     <use xlink:href="#DejaVuSans-73" transform="translate(2361.597656 0)"/>
     <use xlink:href="#DejaVuSans-74" transform="translate(2413.697266 0)"/>
     <use xlink:href="#DejaVuSans-29" transform="translate(2452.90625 0)"/>
    </g>
   </g>
   <g id="legend_1">
    <g id="patch_15">
     <path d="M 367.04875 299.124375 
L 383.04875 299.124375 
L 383.04875 293.524375 
L 367.04875 293.524375 
z
" style="fill: #bdbdbd"/>
    </g>
    <g id="text_27">
     <!-- LLM alone -->
     <g transform="translate(389.44875 299.124375) scale(0.08 -0.08)">
      <defs>
       <path id="DejaVuSans-4c" d="M 628 4666 
L 1259 4666 
L 1259 531 
L 3531 531 
L 3531 0 
L 628 0 
L 628 4666 
z
" transform="scale(0.015625)"/>
      </defs>
      <use xlink:href="#DejaVuSans-4c"/>
      <use xlink:href="#DejaVuSans-4c" transform="translate(55.712891 0)"/>
      <use xlink:href="#DejaVuSans-4d" transform="translate(111.425781 0)"/>
      <use xlink:href="#DejaVuSans-20" transform="translate(197.705078 0)"/>
      <use xlink:href="#DejaVuSans-61" transform="translate(229.492188 0)"/>
      <use xlink:href="#DejaVuSans-6c" transform="translate(290.771484 0)"/>
      <use xlink:href="#DejaVuSans-6f" transform="translate(318.554688 0)"/>
      <use xlink:href="#DejaVuSans-6e" transform="translate(379.736328 0)"/>
      <use xlink:href="#DejaVuSans-65" transform="translate(443.115234 0)"/>
     </g>
    </g>
    <g id="patch_16">
     <path d="M 367.04875 310.866875 
L 383.04875 310.866875 
L 383.04875 305.266875 
L 367.04875 305.266875 
z
" style="fill: #2171b5"/>
    </g>
    <g id="text_28">
     <!-- LLM + MCP (CME) -->
     <g transform="translate(389.44875 310.866875) scale(0.08 -0.08)">
      <defs>
       <path id="DejaVuSans-2b" d="M 2944 4013 
L 2944 2272 
L 4684 2272 
L 4684 1741 
L 2944 1741 
L 2944 0 
L 2419 0 
L 2419 1741 
L 678 1741 
L 678 2272 
L 2419 2272 
L 2419 4013 
L 2944 4013 
z
" transform="scale(0.015625)"/>
      </defs>
      <use xlink:href="#DejaVuSans-4c"/>
      <use xlink:href="#DejaVuSans-4c" transform="translate(55.712891 0)"/>
      <use xlink:href="#DejaVuSans-4d" transform="translate(111.425781 0)"/>
      <use xlink:href="#DejaVuSans-20" transform="translate(197.705078 0)"/>
      <use xlink:href="#DejaVuSans-2b" transform="translate(229.492188 0)"/>
      <use xlink:href="#DejaVuSans-20" transform="translate(313.28125 0)"/>
      <use xlink:href="#DejaVuSans-4d" transform="translate(345.068359 0)"/>
      <use xlink:href="#DejaVuSans-43" transform="translate(431.347656 0)"/>
      <use xlink:href="#DejaVuSans-50" transform="translate(501.171875 0)"/>
      <use xlink:href="#DejaVuSans-20" transform="translate(561.474609 0)"/>
      <use xlink:href="#DejaVuSans-28" transform="translate(593.261719 0)"/>
      <use xlink:href="#DejaVuSans-43" transform="translate(632.275391 0)"/>
      <use xlink:href="#DejaVuSans-4d" transform="translate(702.099609 0)"/>
      <use xlink:href="#DejaVuSans-45" transform="translate(788.378906 0)"/>
      <use xlink:href="#DejaVuSans-29" transform="translate(851.5625 0)"/>
     </g>
    </g>
    <g id="patch_17">
     <path d="M 367.04875 322.609375 
L 383.04875 322.609375 
L 383.04875 317.009375 
L 367.04875 317.009375 
z
" style="fill: #238b45"/>
    </g>
    <g id="text_29">
     <!-- LLM + MCP (Nutrition) -->
     <g transform="translate(389.44875 322.609375) scale(0.08 -0.08)">
      <use xlink:href="#DejaVuSans-4c"/>
      <use xlink:href="#DejaVuSans-4c" transform="translate(55.712891 0)"/>
      <use xlink:href="#DejaVuSans-4d" transform="translate(111.425781 0)"/>
      <use xlink:href="#DejaVuSans-20" transform="translate(197.705078 0)"/>
      <use xlink:href="#DejaVuSans-2b" transform="translate(229.492188 0)"/>
      <use xlink:href="#DejaVuSans-20" transform="translate(313.28125 0)"/>
      <use xlink:href="#DejaVuSans-4d" transform="translate(345.068359 0)"/>
      <use xlink:href="#DejaVuSans-43" transform="translate(431.347656 0)"/>
      <use xlink:href="#DejaVuSans-50" transform="translate(501.171875 0)"/>
      <use xlink:href="#DejaVuSans-20" transform="translate(561.474609 0)"/>
      <use xlink:href="#DejaVuSans-28" transform="translate(593.261719 0)"/>
      <use xlink:href="#DejaVuSans-4e" transform="translate(632.275391 0)"/>
      <use xlink:href="#DejaVuSans-75" transform="translate(707.080078 0)"/>
      <use xlink:href="#DejaVuSans-74" transform="translate(770.458984 0)"/>
      <use xlink:href="#DejaVuSans-72" transform="translate(809.667969 0)"/>
      <use xlink:href="#DejaVuSans-69" transform="translate(850.78125 0)"/>
      <use xlink:href="#DejaVuSans-74" transform="translate(878.564453 0)"/>
      <use xlink:href="#DejaVuSans-69" transform="translate(917.773438 0)"/>
      <use xlink:href="#DejaVuSans-6f" transform="translate(945.556641 0)"/>
      <use xlink:href="#DejaVuSans-6e" transform="translate(1006.738281 0)"/>
      <use xlink:href="#DejaVuSans-29" transform="translate(1070.117188 0)"/>
     </g>
    </g>
    <g id="patch_18">
     <path d="M 367.04875 334.351875 
L 383.04875 334.351875 
L 383.04875 328.751875 
L 367.04875 328.751875 
z
" style="fill: #d94801"/>
    </g>
    <g id="text_30">
     <!-- LLM + MCP (MNCH) -->
     <g transform="translate(389.44875 334.351875) scale(0.08 -0.08)">
      <defs>
       <path id="DejaVuSans-48" d="M 628 4666 
L 1259 4666 
L 1259 2753 
L 3553 2753 
L 3553 4666 
L 4184 4666 
L 4184 0 
L 3553 0 
L 3553 2222 
L 1259 2222 
L 1259 0 
L 628 0 
L 628 4666 
z
" transform="scale(0.015625)"/>
      </defs>
      <use xlink:href="#DejaVuSans-4c"/>
      <use xlink:href="#DejaVuSans-4c" transform="translate(55.712891 0)"/>
      <use xlink:href="#DejaVuSans-4d" transform="translate(111.425781 0)"/>
      <use xlink:href="#DejaVuSans-20" transform="translate(197.705078 0)"/>
      <use xlink:href="#DejaVuSans-2b" transform="translate(229.492188 0)"/>
      <use xlink:href="#DejaVuSans-20" transform="translate(313.28125 0)"/>
      <use xlink:href="#DejaVuSans-4d" transform="translate(345.068359 0)"/>
      <use xlink:href="#DejaVuSans-43" transform="translate(431.347656 0)"/>
      <use xlink:href="#DejaVuSans-50" transform="translate(501.171875 0)"/>
      <use xlink:href="#DejaVuSans-20" transform="translate(561.474609 0)"/>
      <use xlink:href="#DejaVuSans-28" transform="translate(593.261719 0)"/>
      <use xlink:href="#DejaVuSans-4d" transform="translate(632.275391 0)"/>
      <use xlink:href="#DejaVuSans-4e" transform="translate(718.554688 0)"/>
      <use xlink:href="#DejaVuSans-43" transform="translate(793.359375 0)"/>
      <use xlink:href="#DejaVuSans-48" transform="translate(863.183594 0)"/>
      <use xlink:href="#DejaVuSans-29" transform="translate(938.378906 0)"/>
     </g>
    </g>
    <g id="patch_19">
     <path d="M 367.04875 346.094375 
L 383.04875 346.094375 
L 383.04875 340.494375 
L 367.04875 340.494375 
z
" style="fill: #6a3d9a"/>
    </g>
    <g id="text_31">
     <!-- LLM + MCP (Education) -->
     <g transform="translate(389.44875 346.094375) scale(0.08 -0.08)">
      <use xlink:href="#DejaVuSans-4c"/>
      <use xlink:href="#DejaVuSans-4c" transform="translate(55.712891 0)"/>
      <use xlink:href="#DejaVuSans-4d" transform="translate(111.425781 0)"/>
      <use xlink:href="#DejaVuSans-20" transform="translate(197.705078 0)"/>
      <use xlink:href="#DejaVuSans-2b" transform="translate(229.492188 0)"/>
      <use xlink:href="#DejaVuSans-20" transform="translate(313.28125 0)"/>
      <use xlink:href="#DejaVuSans-4d" transform="translate(345.068359 0)"/>
      <use xlink:href="#DejaVuSans-43" transform="translate(431.347656 0)"/>
      <use xlink:href="#DejaVuSans-50" transform="translate(501.171875 0)"/>
      <use xlink:href="#DejaVuSans-20" transform="translate(561.474609 0)"/>
      <use xlink:href="#DejaVuSans-28" transform="translate(593.261719 0)"/>
      <use xlink:href="#DejaVuSans-45" transform="translate(632.275391 0)"/>
      <use xlink:href="#DejaVuSans-64" transform="translate(695.458984 0)"/>
      <use xlink:href="#DejaVuSans-75" transform="translate(758.935547 0)"/>
      <use xlink:href="#DejaVuSans-63" transform="translate(822.314453 0)"/>
      <use xlink:href="#DejaVuSans-61" transform="translate(877.294922 0)"/>
      <use xlink:href="#DejaVuSans-74" transform="translate(938.574219 0)"/>
      <use xlink:href="#DejaVuSans-69" transform="translate(977.783203 0)"/>
      <use xlink:href="#DejaVuSans-6f" transform="translate(1005.566406 0)"/>
      <use xlink:href="#DejaVuSans-6e" transform="translate(1066.748047 0)"/>
      <use xlink:href="#DejaVuSans-29" transform="translate(1130.126953 0)"/>
     </g>
    </g>
   </g>
  </g>
 </g>
 <defs>
  <clipPath id="pf81fb184a3">
   <rect x="43.78125" y="22.318125" width="446.4" height="332.64"/>
  </clipPath>
 </defs>
</svg>
